General
ID                                       : Space Chimps (USA) (BD50)
Complete name                            : Space_Chimps_2008_1080p_BD50.iso
Format                                   : Blu-ray Video
Format profile                           : BD-Video / Blu-ray Disc
File size                                : 38.4 GiB
Duration                                 : 1 h 21 min
Overall bit rate                         : 67.8 Mb/s
Maximum Overall bit rate                 : 48.0 Mb/s
Released date                            : 2008-11-25
Country                                  : United States (en-US)
Distributor                              : 20th Century Fox Home Entertainment

Video
ID                                       : 1
Format                                   : AVC
Format/Info                              : Advanced Video Codec
Format profile                           : High@L4.1
Format settings                          : CABAC / 4 Ref Frames
Format settings, CABAC                   : Yes
Format settings, Reference frames        : 4 frames
Codec ID                                 : V_MPEG4/ISO/AVC
Duration                                 : 1 h 21 min
Bit rate mode                            : Variable
Bit rate                                 : 24.1 Mb/s
Maximum bit rate                         : 35.0 Mb/s
Width                                    : 1 920 pixels
Height                                   : 1 080 pixels
Display aspect ratio                     : 16:9
Original aspect ratio                    : 2.35:1
Frame rate mode                          : Constant
Frame rate                               : 23.976 (24000/1001) FPS
Color space                              : YUV
Chroma subsampling                       : 4:2:0
Bit depth                                : 8 bits
Scan type                                : Progressive
Bits/(Pixel*Frame)                       : 0.485
Stream size                              : 13.6 GiB (35%)
Writing library                          : x264 core 65 r1024
Color primaries                          : BT.709
Transfer characteristics                 : BT.709
Matrix coefficients                      : BT.709

Audio #1
ID                                       : 2
Format                                   : DTS LBR
Format/Info                              : Digital Theater Systems Low Bit Rate
Format profile                           : DTS-HD Master Audio
Codec ID                                 : A_DTS
Duration                                 : 1 h 21 min
Bit rate mode                            : Variable
Bit rate                                 : 3 844 kb/s
Channel(s)                               : 6 channels
Channel layout                           : C L R Ls Rs LFE
Sampling rate                            : 48.0 kHz
Frame rate                               : 93.750 FPS (512 SPF)
Bit depth                                : 24 bits
Compression mode                         : Lossless
Stream size                              : 2.18 GiB (6%)
Language                                 : English
Service kind                             : Complete Main

Audio #2
ID                                       : 3
Format                                   : AC-3
Format/Info                              : Audio Coding 3
Commercial name                          : Dolby Digital
Codec ID                                 : A_AC3
Duration                                 : 1 h 21 min
Bit rate mode                            : Constant
Bit rate                                 : 448 kb/s
Channel(s)                               : 6 channels
Channel layout                           : C L R Ls Rs LFE
Sampling rate                            : 48.0 kHz
Frame rate                               : 31.250 FPS (1536 SPF)
Bit depth                                : 16 bits
Compression mode                         : Lossy
Stream size                              : 260 MiB (1%)
Language                                 : Spanish
Service kind                             : Complete Main

Audio #3
ID                                       : 4
Format                                   : AC-3
Format/Info                              : Audio Coding 3
Commercial name                          : Dolby Digital
Codec ID                                 : A_AC3
Duration                                 : 1 h 21 min
Bit rate mode                            : Constant
Bit rate                                 : 448 kb/s
Channel(s)                               : 6 channels
Channel layout                           : C L R Ls Rs LFE
Sampling rate                            : 48.0 kHz
Frame rate                               : 31.250 FPS (1536 SPF)
Bit depth                                : 16 bits
Compression mode                         : Lossy
Stream size                              : 260 MiB (1%)
Language                                 : French
Service kind                             : Complete Main

Subtitle #1
ID                                       : 5
Format                                   : PGS
Muxing mode                              : Presentation Graphic Stream
Codec ID                                 : S_HDMV/PGS
Codec ID/Info                            : Picture-based subtitle format used on Blu-rays
Duration                                 : 1 h 20 min
Bit rate                                 : 32.4 kb/s
Frame rate                               : 23.976 FPS
Language                                 : English (SDH)

Subtitle #2
ID                                       : 6
Format                                   : PGS
Muxing mode                              : Presentation Graphic Stream
Codec ID                                 : S_HDMV/PGS
Codec ID/Info                            : Picture-based subtitle format used on Blu-rays
Duration                                 : 1 h 19 min
Bit rate                                 : 28.1 kb/s
Frame rate                               : 23.976 FPS
Language                                 : Spanish

Menu
00:00:00.000                             : Chapter 1: Main Titles
00:06:14.249                             : Chapter 2: The Circus Act
00:12:35.842                             : Chapter 3: An Invitation from NASA
00:19:42.508                             : Chapter 4: Training Days
00:26:15.141                             : Chapter 5: Launch / The Wormhole
00:33:04.912                             : Chapter 6: Setting Foot on Malgor
00:40:11.854                             : Chapter 7: Meeting Kilowatt
00:48:50.041                             : Chapter 8: Confronting Zartog
00:55:18.423                             : Chapter 9: The Rescue Plan
01:02:30.129                             : Chapter 10: Saving Planet Malgor
01:09:55.701                             : Chapter 11: Launching Back Home
01:16:45.321                             : Chapter 12: End Credits